<svg id="Layer_1" data-name="Layer 1" xmlns="http://www.w3.org/2000/svg" viewBox="0 0 75.69 75.69"><defs><style>.cls-1{opacity:0.69;}.cls-2{opacity:0.3;}.cls-3{fill:none;stroke:#fff;stroke-miterlimit:10;stroke-width:2px;}</style></defs><title>black-diamond</title><g class="cls-1"><path d="M309.58,242.56a8.31,8.31,0,0,1-5.89-2.44l-28.31-28.31a8.34,8.34,0,0,1,0-11.78l28.73-28.73a8.33,8.33,0,0,1,11.78,0l28.31,28.31a8.35,8.35,0,0,1,0,11.78l-28.73,28.73A8.31,8.31,0,0,1,309.58,242.56Z" transform="translate(-271.94 -167.86)"/><path d="M310,169.86a7.24,7.24,0,0,1,5.18,2.15l28.31,28.31a7.32,7.32,0,0,1,0,10.36l-28.73,28.73a7.32,7.32,0,0,1-10.36,0L276.09,211.1a7.33,7.33,0,0,1,0-10.36L304.82,172a7.24,7.24,0,0,1,5.18-2.15m0-2a9.28,9.28,0,0,0-6.59,2.73l-28.74,28.74a9.32,9.32,0,0,0,0,13.18L303,240.83a9.32,9.32,0,0,0,13.18,0l28.74-28.74a9.32,9.32,0,0,0,0-13.18l-28.32-28.32a9.28,9.28,0,0,0-6.59-2.73Z" transform="translate(-271.94 -167.86)"/></g><g class="cls-2"><line class="cls-3" x1="44.34" y1="54.93" x2="65.68" y2="32.76"/></g></svg>