<svg id="Layer_1" data-name="Layer 1" xmlns="http://www.w3.org/2000/svg" viewBox="0 0 62 62"><defs><style>.cls-1{opacity:0.69;}.cls-2{fill:#0038df;}.cls-3{fill:blue;}.cls-4{opacity:0.3;}.cls-5{fill:none;stroke:#fff;stroke-miterlimit:10;stroke-width:2px;}</style></defs><title>blue-square</title><g class="cls-1"><rect class="cls-2" x="1" y="1" width="60" height="60" rx="8.33"/><path class="cls-3" d="M341.67,185a7.34,7.34,0,0,1,7.33,7.33v43.34a7.34,7.34,0,0,1-7.33,7.33H298.33a7.34,7.34,0,0,1-7.33-7.33V192.33a7.34,7.34,0,0,1,7.33-7.33h43.34m0-2H298.33a9.33,9.33,0,0,0-9.33,9.33v43.34a9.33,9.33,0,0,0,9.33,9.33h43.34a9.33,9.33,0,0,0,9.33-9.33V192.33a9.33,9.33,0,0,0-9.33-9.33Z" transform="translate(-289 -183)"/></g><g class="cls-4"><line class="cls-5" x1="53" y1="15" x2="27.38" y2="53.27"/></g></svg>