<svg id="Capa_1" data-name="Capa 1" xmlns="http://www.w3.org/2000/svg" viewBox="0 0 305.92 512"><defs><style>.cls-1{fill:#baf0ff;}.cls-2{fill:#8adeff;}.cls-3{fill:#2fb6eb;}.cls-4{fill:#0097c6;}.cls-5{fill:#00a1d3;}.cls-6{fill:#ff6243;}.cls-7{fill:#d80027;}.cls-8{fill:#fff;}.cls-9{stroke:#000;stroke-miterlimit:10;stroke-width:51px;}</style></defs><title>filled-water-plus</title><polygon class="cls-1" points="8.02 151.3 88.17 47.09 136.27 47.09 216.42 151.3 8.02 151.3"/><polygon class="cls-2" points="88.17 47.09 8.02 151.3 29.06 151.3 109.21 47.09 88.17 47.09"/><polygon class="cls-2" points="75.84 63.12 88.17 47.09 136.27 47.09 148.6 63.12 75.84 63.12"/><polygon class="cls-2" points="216.42 151.3 8.02 151.3 20.35 135.26 204.09 135.26 216.42 151.3"/><path class="cls-2" d="M360.47,223.44V151.3H152.06v72.14a32.07,32.07,0,0,0,32.06,32.06h-4a28.05,28.05,0,0,0-28.06,28.05h0a28.06,28.06,0,0,0,28.06,28.06,28.05,28.05,0,0,0-28.06,28.05h0a28.06,28.06,0,0,0,28.06,28.06h4a32.06,32.06,0,0,0-32.06,32.06v64.13A32.07,32.07,0,0,0,184.12,496h42.93a32,32,0,0,0,21.2,8h16a32,32,0,0,0,21.2-8h42.93a32.07,32.07,0,0,0,32.06-32.06V399.78a32.06,32.06,0,0,0-32.06-32.06h4a28.06,28.06,0,0,0,28.06-28.06h0a28.05,28.05,0,0,0-28.06-28.05,28.06,28.06,0,0,0,28.06-28.06h0a28.05,28.05,0,0,0-28.06-28.05h-4A32.07,32.07,0,0,0,360.47,223.44Z" transform="translate(-144.05)"/><path class="cls-3" d="M172.1,463.91V399.78a32.06,32.06,0,0,1,32.07-32.06h-4a28.06,28.06,0,1,1,0-56.11,28.06,28.06,0,1,1,0-56.11h4a32.07,32.07,0,0,1-32.07-32.06V151.29h-20v72.15a32.07,32.07,0,0,0,32.07,32.06h-4a28.06,28.06,0,1,0,0,56.11,28.06,28.06,0,1,0,0,56.11h4a32.06,32.06,0,0,0-32.07,32.06v64.13A32.07,32.07,0,0,0,184.13,496h20A32.07,32.07,0,0,1,172.1,463.91Z" transform="translate(-144.05)"/><path class="cls-3" d="M247.09,496h-20a32,32,0,0,0,21.2,8h16q1,0,2-.06A32,32,0,0,1,247.09,496Z" transform="translate(-144.05)"/><path class="cls-3" d="M328.41,367.72H184.12a32.06,32.06,0,0,0-32.06,32.06v64.13A32.07,32.07,0,0,0,184.12,496h42.93a32,32,0,0,0,21.2,8h16a32,32,0,0,0,21.2-8h42.93a32.07,32.07,0,0,0,32.06-32.06V399.78A32.06,32.06,0,0,0,328.41,367.72Z" transform="translate(-144.05)"/><path class="cls-3" d="M332.42,311.61H180.12a28.06,28.06,0,0,1-28.06-28.06h0a28.05,28.05,0,0,1,28.06-28.05H332.41a28.05,28.05,0,0,1,28.06,28.05h0A28.05,28.05,0,0,1,332.42,311.61Z" transform="translate(-144.05)"/><path class="cls-4" d="M172.1,463.91V399.78a32.06,32.06,0,0,1,32.07-32.06h-20a32.06,32.06,0,0,0-32.07,32.06v64.13A32.07,32.07,0,0,0,184.13,496h20A32.07,32.07,0,0,1,172.1,463.91Z" transform="translate(-144.05)"/><path class="cls-5" d="M247.09,496h-20a32,32,0,0,0,21.2,8h16q1,0,2-.06A32,32,0,0,1,247.09,496Z" transform="translate(-144.05)"/><path class="cls-4" d="M172.1,283.55a28.05,28.05,0,0,1,28.06-28.05h-20a28.06,28.06,0,1,0,0,56.11h20A28.06,28.06,0,0,1,172.1,283.55Z" transform="translate(-144.05)"/><rect class="cls-6" x="64.13" y="7.01" width="96.19" height="40.08"/><rect class="cls-7" x="64.13" y="7.01" width="16.03" height="40.08"/><rect class="cls-7" x="64.13" y="31.06" width="96.19" height="16.03"/><path d="M367.86,339.66a35.46,35.46,0,0,0-13.68-28.05,35.33,35.33,0,0,0-1.56-57.11,39.3,39.3,0,0,0,14.86-31.06v-74.7L295.57,55.11h15.8V0H200.16V55.11H217l-72.91,93.63v74.7a39.76,39.76,0,0,0,15.34,31.06,35.54,35.54,0,0,0-1.16,57.11,35.7,35.7,0,0,0,1.15,57.11,39.72,39.72,0,0,0-15.33,31.06v64.13c0,21.82,18.25,40.08,40.07,40.08H224.2v-.66c6.67,5.12,15,8.67,24.05,8.67h16c9,0,17.38-3.55,24.05-8.67V504h40.08c21.82,0,39.07-18.26,39.07-40.08V399.78a39.32,39.32,0,0,0-14.84-31.06A35.66,35.66,0,0,0,367.86,339.66ZM215.19,40.08V15h81.16v25Zm20.73,15h40.69l68.6,89.17H167.32m165.1,175.34a20.54,20.54,0,0,1,0,41.08h-20v15h16a23.73,23.73,0,0,1,24,24V463.9c0,13.54-10.51,25.05-24,25.05H300.23c2.32-6,3.63-11.13,3.63-17h-15c0,13.54-11,25.05-24.55,25.05h-16c-13.54,0-24.55-11.51-24.55-25.05h-15c0,5.9,1.31,11,3.63,17H184.12a25.44,25.44,0,0,1-25-25.05V399.78c0-13.54,11.51-24,25-24h80.16v-15H180.12a20.54,20.54,0,0,1,0-41.08h84.16v-15H180.12a20.55,20.55,0,0,1,0-41.09h84.16v-15H184.12a25.44,25.44,0,0,1-25-25.05V159.31H352.45v64.13c0,13.53-10.51,25.05-24,25.05h-16v15h20a20.55,20.55,0,0,1,0,41.09h-20v15Z" transform="translate(-144.05)"/><rect class="cls-8" x="56.11" y="111.72" width="16.03" height="15.03"/><rect class="cls-8" x="72.15" y="95.69" width="16.03" height="15.03"/><rect class="cls-8" x="136.27" y="304.09" width="16.03" height="15.03"/><rect class="cls-8" x="136.27" y="247.98" width="16.03" height="15.03"/><rect class="cls-8" x="136.27" y="360.2" width="16.03" height="15.03"/><line class="cls-9" x1="225.1" x2="225.1" y2="161.64"/><line class="cls-9" x1="305.92" y1="80.82" x2="144.29" y2="80.82"/></svg>