<svg id="Layer_1" data-name="Layer 1" xmlns="http://www.w3.org/2000/svg" viewBox="0 0 59.11 59.11"><defs><style>.cls-1{opacity:0.69;}.cls-2{fill:#0a0;}.cls-3{opacity:0.3;}.cls-4{fill:none;stroke:#fff;stroke-miterlimit:10;stroke-width:2px;}</style></defs><title>green-circle</title><g class="cls-1"><path class="cls-2" d="M309.58,234.27a28.34,28.34,0,0,1-20-48.39l.42-.42A28.34,28.34,0,1,1,330,225.54l-.42.42A28.13,28.13,0,0,1,309.58,234.27Z" transform="translate(-280.23 -176.16)"/><path class="cls-2" d="M310,178.16a27.34,27.34,0,0,1,19.34,46.68l-.42.42a27.35,27.35,0,0,1-38.68-38.68l.42-.42a27.2,27.2,0,0,1,19.34-8m0-2a29.25,29.25,0,0,0-20.75,8.59l-.42.42a29.34,29.34,0,0,0,0,41.5h0a29.33,29.33,0,0,0,41.5,0l.42-.42a29.34,29.34,0,0,0,0-41.5h0A29.25,29.25,0,0,0,310,176.16Z" transform="translate(-280.23 -176.16)"/></g><g class="cls-3"><line class="cls-4" x1="16.05" y1="43.63" x2="37.39" y2="21.47"/></g></svg>