<svg id="Layer_1" data-name="Layer 1" xmlns="http://www.w3.org/2000/svg" viewBox="0 0 90.62 136.13"><defs><style>.cls-1{fill:none;stroke:#000;stroke-miterlimit:10;}</style></defs><title>hollow-fire</title><g id="surface1"><path class="cls-1" d="M45.36,134C30.46,84.91,61.94,67,61.94,67c-2.21,26.19,12.68,46.6,12.68,46.6,5.47-1.65,15.92-9.37,15.92-9.37C90.54,113.59,85,134,85,134s19.3-14.93,25.37-39.71S98.85,44.61,98.85,44.61a66.48,66.48,0,0,1-16.51,48,9.39,9.39,0,0,0,1.45-2.23c2.09-4.18,5.44-15,3.48-40.18C84.5,14.88,52.52,0,52.52,0,55.28,21.51,47,26.46,27.65,67.28S45.36,134,45.36,134Z" transform="translate(-21.55 0.84)"/></g></svg>