<svg id="Layer_1" data-name="Layer 1" xmlns="http://www.w3.org/2000/svg" viewBox="0 0 89.6 134"><defs><style>.cls-1{fill:#d41700;}.cls-2{stroke:#000;stroke-miterlimit:10;stroke-width:15px;}</style></defs><title>red-fire-plus</title><g id="surface1"><path class="cls-1" d="M23.32,134C8.42,84.91,39.9,67,39.9,67c-2.21,26.19,12.68,46.6,12.68,46.6,5.47-1.65,15.92-9.37,15.92-9.37C68.5,113.59,63,134,63,134s19.3-14.93,25.37-39.71S76.81,44.61,76.81,44.61a66.48,66.48,0,0,1-16.51,48,9.39,9.39,0,0,0,1.45-2.23c2.09-4.18,5.44-15,3.48-40.18C62.46,14.88,30.48,0,30.48,0,33.24,21.51,25,26.46,5.61,67.28S23.32,134,23.32,134Z" transform="translate(-0.02 0)"/></g><line class="cls-2" x1="63.88" x2="63.88" y2="51.45"/><line class="cls-2" x1="89.6" y1="25.72" x2="38.15" y2="25.72"/></svg>